<?xml version="1.0" encoding="UTF-8"?>
<svg xmlns="http://www.w3.org/2000/svg" version="1.1" viewBox="0 0 428.5996857 89.1853027">
  <defs>
    <style>
      .cls-1 {
        fill: none;
      }

      .cls-2 {
        fill: #fff;
      }
    </style>
  </defs>
  <!-- Generator: Adobe Illustrator 28.7.7, SVG Export Plug-In . SVG Version: 1.2.0 Build 194)  -->
  <g>
    <g id="_レイヤー_1" data-name="レイヤー_1">
      <g>
        <path class="cls-1" d="M44.8246002,43.6229095l-1.2503052-9.5975952c-.7244263-5.0953979.3983765-11.8110962,7.6347656-12.6431274v-9.8302612c-15.5467529.2023315-17.8231201,12.9818726-16.8091431,20.1363525s1.0396118,7.2952881,1.5755615,12.2362671c.5360107,4.94104.1062012,8.6744385-10.4383545,9.6698608v19.0606689h36.7890625v-9.2423706H27.9761505c15.3461914-.6460571,18.225647-10.1030884,16.8484497-19.7897949Z"/>
        <path class="cls-2" d="M71.1634064.2432098C55.8576202-.0810699,33.3275909-.0810699,18.0218048.2432098,8.2793121.4495087.4494781,8.2792816.2431183,18.0218353-.0810394,33.3276215-.0810394,55.8576508.2431183,71.1634369c.2063599,9.7426147,8.0361938,17.5723267,17.7786865,17.7787476,15.3057861.3241577,37.8358154.3241577,53.1416016,0,9.7425537-.2064209,17.5723267-8.0361328,17.7787476-17.7787476.3241577-15.3057861.3241577-37.8358154,0-53.1416016-.2064209-9.7425537-8.0361938-17.5723267-17.7787476-17.7786255ZM62.3261871,72.6550751H25.5371246v-19.0606689c10.5445557-.9954224,10.9743652-4.7288208,10.4383545-9.6698608-.5359497-4.940979-.5615845-5.0817871-1.5755615-12.2362671s1.2623901-19.934021,16.8091431-20.1363525v9.8302612c-7.2363892.8320312-8.3591919,7.5477295-7.6347656,12.6431274l1.2503052,9.5975952c1.3771973,9.6867065-1.5022583,19.1437378-16.8484497,19.7897949h34.3500366v9.2423706Z"/>
        <path class="cls-2" d="M265.2783966,31.7386322c-7.4852295,0-11.1231689,5.7474976-11.1231689,5.7474976,0,0-3.4195557-5.7474976-11.3939209-5.7474976s-10.852478,5.3898926-10.852478,5.3898926v-5.6176147h-10.0471802v38.6077881h10.0471802v-21.1381226c0-5.2824707,2.3826294-7.8574219,6.564209-7.8574219,4.1836548,0,6.9851074,2.9256592,6.9851074,8.2080688v20.7874756h10.4636841v-21.1381226c0-5.2824707,2.3427734-7.8574219,6.524353-7.8574219,4.1836548,0,7.0249023,2.9256592,7.0249023,8.2080688v20.7874756h10.4615479v-24.7323608c0-9.3061523-7.1688843-13.6477051-14.6542358-13.6477051Z"/>
        <polygon class="cls-2" points="133.2425079 17.0781708 122.4270172 17.0781708 122.4270172 70.1741791 159.4574738 70.1741791 159.4574738 59.8516083 133.2425079 59.8516083 133.2425079 17.0781708"/>
        <rect class="cls-2" x="166.4590607" y="33.8549042" width="9.7877808" height="36.2637939"/>
        <path class="cls-2" d="M334.7536163,33.8740692l6.5997925-6.921814c-.592041-.7283936-1.2250977-1.4346313-1.9033813-2.112915-10.666687-10.666687-27.9610596-10.6668091-38.6278687,0-10.666626,10.666626-10.666626,27.9610596,0,38.6276855,10.6668091,10.6668091,27.9610596,10.6668091,38.6278687,0,.6782837-.6782837,1.3113403-1.3843994,1.9033813-2.112915l-6.5997925-6.9165649c-6.7545776,7.8482666-19.208374,8.5814819-26.5081177,1.3782959-6.5259399-6.4395142-6.526062-16.8804932,0-23.3200684,7.2997437-7.203186,19.3602905-6.4325562,26.5081177,1.3782959Z"/>
        <path class="cls-2" d="M357.3777618,32.2617035c0-2.5013428,2.4782104-5.588623,7.9752808-5.588623,5.4970093,0,9.170105,4.0460815,9.7769775,6.2714844l9.1036987-4.2484741c-.6068726-4.4001465-7.4801636-11.8359375-18.8806763-11.8359375-11.4006348,0-19.0515137,6.1567383-19.0515137,15.4015503,0,19.3201294,27.8422241,14.0476074,27.8422241,23.3030396,0,3.7932129-2.4771118,5.8036499-8.7907104,5.8036499-6.3137207,0-9.9020386-2.7623901-11.8696899-7.0806885l-9.1542969,5.361084c2.9837036,6.0356445,8.9915161,11.5314331,21.0239868,11.5314331,12.0323486,0,19.7910767-7.5738525,19.7910767-15.6154785,0-18.9786987-27.7663574-13.7440796-27.7663574-23.3030396Z"/>
        <path class="cls-2" d="M193.5424347,41.0759125c0-1.7852173,1.8480225-3.9885864,5.9470215-3.9885864,4.0990601,0,6.6016235,2.5687256,7.1448975,4.605957l8.0149536-3.3426514c-1.1568604-3.7871704-6.0019531-9.4227905-15.190979-9.4227905-9.1890869,0-15.3557739,4.7889404-15.3557739,11.9799805,0,14.5728149,21.52948,11.0484009,21.52948,17.90271,0,2.2592163-1.7687988,4.0125122-6.2774048,4.0125122-4.508667,0-7.0465698-1.8188477-9.0460815-5.2144775l-8.2843628,4.4065552c2.8934326,4.8901978,7.7358398,9.1651001,17.4341431,9.1651001,9.6983643,0,15.9519043-5.8912354,15.9519043-12.1463623,0-15.2176514-21.8677979-11.5911865-21.8677979-17.9579468Z"/>
        <path class="cls-2" d="M171.3529205,16.8274994c-3.1711426,0-5.7418823,2.5029297-5.7418823,5.590332s2.5707397,5.59021,5.7418823,5.59021c3.1712036,0,5.7419434-2.5028076,5.7419434-5.59021s-2.5707397-5.590332-5.7419434-5.590332Z"/>
        <path class="cls-2" d="M400.8333282,32.3524017c0-2.5013428,2.4783325-5.588623,7.9752808-5.588623,5.4970703,0,9.1700439,4.0460205,9.7770386,6.2714844l9.1036987-4.2484741c-.6069946-4.4000854-7.4801025-11.8359375-18.8807373-11.8359375-11.4005127,0-19.0514526,6.1568604-19.0514526,15.4015503,0,19.3201294,27.8422241,14.0476074,27.8422241,23.3029785,0,3.793335-2.4770508,5.8036499-8.7907715,5.8036499-6.3135986,0-9.9019775-2.7623291-11.8696289-7.0806274l-9.1542358,5.3610229c2.9837036,6.0357056,8.991394,11.5314331,21.0238647,11.5314331s19.7910767-7.5737915,19.7910767-15.6154785c0-18.9786377-27.7663574-13.7440186-27.7663574-23.3029785Z"/>
      </g>
    </g>
  </g>
</svg>