<?xml version="1.0" encoding="utf-8"?>
<!-- Generator: Adobe Illustrator 28.1.0, SVG Export Plug-In . SVG Version: 6.00 Build 0)  -->
<svg version="1.1" id="レイヤー_1" xmlns="http://www.w3.org/2000/svg" xmlns:xlink="http://www.w3.org/1999/xlink" x="0px"
	 y="0px" viewBox="0 0 96 96" style="enable-background:new 0 0 96 96;" xml:space="preserve">
<path d="M91.7,21.9c-0.2-9.6-7.9-17.3-17.5-17.5c-15.1-0.3-37.3-0.3-52.4,0C12.2,4.6,4.5,12.3,4.3,21.9C4,37,4,59.2,4.3,74.3
	c0.2,9.6,7.9,17.3,17.5,17.5c15.1,0.3,37.3,0.3,52.4,0c9.6-0.2,17.4-8,17.5-17.5C92,59.2,92,37,91.7,21.9z M65.4,75.5H29.3V59.8
	c10-1.1,11.1-5,10.6-10.3s-0.7-6.2-1.7-13.9c-1-7.7,1.7-18.8,16.4-19.7v8.7c-7.2,0.7-8.5,7.4-7.8,12.6l1.3,9.8
	c1.4,9.9-1.4,19.7-17.1,20.4h34.4V75.5z"/>
</svg>
