<?xml version="1.0" encoding="UTF-8"?>
<svg xmlns="http://www.w3.org/2000/svg" version="1.1" viewBox="0 0 428.5997183 89.1853355">
  <defs>
    <style>
      .cls-1 {
        fill: #fff;
      }
    </style>
  </defs>
  <!-- Generator: Adobe Illustrator 28.7.7, SVG Export Plug-In . SVG Version: 1.2.0 Build 194)  -->
  <g>
    <g id="_レイヤー_1" data-name="レイヤー_1">
      <g>
        <path d="M71.1634461,88.9421568c-15.3057363.3242382-37.8358205.3242382-53.1415568,0-9.7426016-.2063882-17.5723224-8.0361091-17.7787107-17.7787107C-.0810596,55.8577098-.0810596,33.3276256.2431787,18.0218894.4495669,8.2792878,8.2792878.4495669,18.0218894.2431787,33.3276256-.0810596,55.8577098-.0810596,71.1634461.2431787c9.7426016.2063882,17.5723224,8.0361091,17.7787107,17.7787107.3242382,15.3057363.3242382,37.8358205,0,53.1415568-.2063882,9.7426016-8.0361091,17.5723224-17.7787107,17.7787107Z"/>
        <path class="cls-1" d="M27.3744086,64.2175052c15.923132-.6703703,18.7318252-10.6619841,17.3028605-20.7128596l-1.2972968-9.9584183c-.751688-5.2869913.5923943-12.095561,7.8909421-12.7489993v-8.8003193c-14.8614339.9010677-17.6232302,12.2115887-16.571112,19.9710857,1.0521182,7.7594969,1.1836747,8.6801699,1.7397546,14.0390105.5561912,5.3588406-.6548865,9.3711481-10.7562236,10.4507807v15.9554363h36.5978948v-8.1957166H27.3744086Z"/>
        <g>
          <path d="M265.2784292,31.7386028c-7.4852295,0-11.1231689,5.7474976-11.1231689,5.7474976,0,0-3.4195557-5.7474976-11.3939209-5.7474976s-10.852478,5.3899536-10.852478,5.3899536v-5.6176147h-10.0471802v38.6077881h10.0471802v-21.1381836c0-5.2824097,2.3826294-7.8574219,6.564209-7.8574219,4.1836548,0,6.9851074,2.9256592,6.9851074,8.2080688v20.7875366h10.4636841v-21.1381836c0-5.2824097,2.3427734-7.8574219,6.524353-7.8574219,4.1836548,0,7.0249023,2.9256592,7.0249023,8.2080688v20.7875366h10.4615479v-24.7324219c0-9.3060913-7.1688843-13.6477051-14.6542358-13.6477051Z"/>
          <polygon points="133.2425405 17.0781414 122.4270498 17.0781414 122.4270498 70.1742107 159.4575064 70.1742107 159.4575064 59.8516399 133.2425405 59.8516399 133.2425405 17.0781414"/>
          <rect x="166.4590933" y="33.8548748" width="9.7877808" height="36.263855"/>
          <path d="M334.7536489,33.8740398l6.5997925-6.921814c-.592041-.7283936-1.2250977-1.4346313-1.9033813-2.112915-10.666687-10.666687-27.9610596-10.666748-38.6278687,0-10.666626,10.666687-10.666626,27.9610596,0,38.6277466,10.6668091,10.666748,27.9610596,10.666748,38.6278687,0,.6782837-.6782837,1.3113403-1.3844604,1.9033813-2.1129761l-6.5997925-6.9165649c-6.7545776,7.8482666-19.208374,8.5814819-26.5081177,1.3782959-6.5259399-6.4394531-6.526062-16.8804321,0-23.3200684,7.2997437-7.203186,19.3602905-6.4325562,26.5081177,1.3782959Z"/>
          <path d="M357.3777944,32.2617351c0-2.5013428,2.4782104-5.5886841,7.9752808-5.5886841,5.4970093,0,9.170105,4.0460815,9.7769775,6.2715454l9.1036987-4.2484741c-.6068726-4.4002075-7.4801636-11.8359985-18.8806763-11.8359985-11.4006348,0-19.0515137,6.1567993-19.0515137,15.4016113,0,19.3200684,27.8422241,14.0476074,27.8422241,23.3029785,0,3.7932129-2.4771118,5.8036499-8.7907104,5.8036499-6.3137207,0-9.9020386-2.7623291-11.8696899-7.0806885l-9.1542969,5.361084c2.9837036,6.0357056,8.9915161,11.5314331,21.0239868,11.5314331,12.0323486,0,19.7910767-7.5737915,19.7910767-15.6154785,0-18.9786377-27.7663574-13.7440186-27.7663574-23.3029785Z"/>
          <path d="M193.5424673,41.0758831c0-1.7851562,1.8480225-3.9885864,5.9470215-3.9885864,4.0990601,0,6.6016235,2.5687866,7.1448975,4.605957l8.0149536-3.3425903c-1.1568604-3.7871704-6.0019531-9.4228516-15.190979-9.4228516-9.1890869,0-15.3557739,4.7889404-15.3557739,11.9799805,0,14.5728149,21.52948,11.0484009,21.52948,17.90271,0,2.2592163-1.7687988,4.0125732-6.2774048,4.0125732-4.508667,0-7.0465698-1.8188477-9.0460815-5.2144775l-8.2843628,4.4064941c2.8934326,4.8902588,7.7358398,9.1651001,17.4341431,9.1651001,9.6983643,0,15.9519043-5.8911743,15.9519043-12.1463013,0-15.2177124-21.8677979-11.5912476-21.8677979-17.9580078Z"/>
          <ellipse cx="171.3529684" cy="22.4177868" rx="5.7418976" ry="5.5902252"/>
          <path d="M400.8333608,32.3523723c0-2.5013428,2.4783325-5.588623,7.9752808-5.588623,5.4970703,0,9.1700439,4.0460815,9.7770386,6.2714844l9.1036987-4.2484741c-.6069946-4.4000244-7.4801025-11.8359375-18.8807373-11.8359375-11.4005127,0-19.0514526,6.1568604-19.0514526,15.4015503,0,19.3201294,27.8422241,14.0476074,27.8422241,23.3030396,0,3.7932739-2.4770508,5.8036499-8.7907715,5.8036499-6.3135986,0-9.9019775-2.7623901-11.8696289-7.0806885l-9.1542358,5.361084c2.9837036,6.0356445,8.991394,11.5313721,21.0238647,11.5313721s19.7910767-7.5737915,19.7910767-15.6154175c0-18.9786987-27.7663574-13.7440796-27.7663574-23.3030396Z"/>
        </g>
      </g>
    </g>
  </g>
</svg>