<?xml version="1.0" encoding="UTF-8"?><svg id="_レイヤー_1" xmlns="http://www.w3.org/2000/svg" viewBox="0 0 440 100"><defs><style>.cls-1{fill:#fff;}</style></defs><path class="cls-1" d="M94.64,23.43c-.21-9.74-8.04-17.57-17.78-17.78-15.31-.32-37.84-.32-53.14,0-9.74.21-17.57,8.04-17.78,17.78-.32,15.31-.32,37.84,0,53.14.21,9.74,8.04,17.57,17.78,17.78,15.31.32,37.84.32,53.14,0,9.74-.21,17.57-8.04,17.78-17.78.32-15.31.32-37.84,0-53.14ZM67.98,77.82H31.38v-15.96c10.1-1.08,11.31-5.09,10.76-10.45-.56-5.36-.69-6.28-1.74-14.04-1.05-7.76,1.71-19.07,16.57-19.97v8.8c-7.3.65-8.64,7.46-7.89,12.75l1.3,9.96c1.43,10.05-1.38,20.04-17.3,20.71h34.91v8.2Z"/><path class="cls-1" d="M270.98,37.15c-7.49,0-11.12,5.75-11.12,5.75,0,0-3.42-5.75-11.39-5.75s-10.85,5.39-10.85,5.39v-5.62h-10.05v38.61h10.05v-21.14c0-5.28,2.38-7.86,6.56-7.86s6.99,2.93,6.99,8.21v20.79h10.46v-21.14c0-5.28,2.34-7.86,6.52-7.86s7.02,2.93,7.02,8.21v20.79h10.46v-24.73c0-9.31-7.17-13.65-14.65-13.65Z"/><polygon class="cls-1" points="138.94 22.49 128.13 22.49 128.13 75.58 165.16 75.58 165.16 65.26 138.94 65.26 138.94 22.49"/><rect class="cls-1" x="172.16" y="39.26" width="9.79" height="36.26"/><path class="cls-1" d="M340.45,39.28l6.6-6.92c-.59-.73-1.23-1.43-1.9-2.11-10.67-10.67-27.96-10.67-38.63,0-10.67,10.67-10.67,27.96,0,38.63,10.67,10.67,27.96,10.67,38.63,0,.68-.68,1.31-1.38,1.9-2.11l-6.6-6.92c-6.75,7.85-19.21,8.58-26.51,1.38-6.53-6.44-6.53-16.88,0-23.32,7.3-7.2,19.36-6.43,26.51,1.38Z"/><path class="cls-1" d="M363.08,37.67c0-2.5,2.48-5.59,7.98-5.59s9.17,4.05,9.78,6.27l9.1-4.25c-.61-4.4-7.48-11.84-18.88-11.84s-19.05,6.16-19.05,15.4c0,19.32,27.84,14.05,27.84,23.3,0,3.79-2.48,5.8-8.79,5.8s-9.9-2.76-11.87-7.08l-9.15,5.36c2.98,6.04,8.99,11.53,21.02,11.53s19.79-7.57,19.79-15.62c0-18.98-27.77-13.74-27.77-23.3Z"/><path class="cls-1" d="M199.24,46.48c0-1.79,1.85-3.99,5.95-3.99s6.6,2.57,7.14,4.61l8.01-3.34c-1.16-3.79-6-9.42-15.19-9.42s-15.36,4.79-15.36,11.98c0,14.57,21.53,11.05,21.53,17.9,0,2.26-1.77,4.01-6.28,4.01s-7.05-1.82-9.05-5.21l-8.28,4.41c2.89,4.89,7.74,9.17,17.43,9.17s15.95-5.89,15.95-12.15c0-15.22-21.87-11.59-21.87-17.96Z"/><ellipse class="cls-1" cx="177.05" cy="27.83" rx="5.74" ry="5.59"/><path class="cls-1" d="M406.53,37.76c0-2.5,2.48-5.59,7.98-5.59s9.17,4.05,9.78,6.27l9.1-4.25c-.61-4.4-7.48-11.84-18.88-11.84s-19.05,6.16-19.05,15.4c0,19.32,27.84,14.05,27.84,23.3,0,3.79-2.48,5.8-8.79,5.8s-9.9-2.76-11.87-7.08l-9.15,5.36c2.98,6.04,8.99,11.53,21.02,11.53s19.79-7.57,19.79-15.62c0-18.98-27.77-13.74-27.77-23.3Z"/></svg>