<?xml version="1.0" encoding="utf-8"?>
<!-- Generator: Adobe Illustrator 28.1.0, SVG Export Plug-In . SVG Version: 6.00 Build 0)  -->
<svg version="1.1" id="レイヤー_1" xmlns="http://www.w3.org/2000/svg" xmlns:xlink="http://www.w3.org/1999/xlink" x="0px"
	 y="0px" viewBox="0 0 40 40" style="enable-background:new 0 0 40 40;" xml:space="preserve">
<style type="text/css">
	.st0{fill:#497AB7;}
	.st1{fill:#F0EEE9;}
</style>
<rect class="st0" width="40" height="40"/>
<g>
	<path class="st1" d="M8.4,26.2c-1.2,0-2.3-0.3-3.1-0.8c-0.9-0.5-1.6-1.2-2-2.2c-0.5-0.9-0.7-2-0.7-3.2c0-1.2,0.2-2.3,0.7-3.3
		c0.5-0.9,1.2-1.7,2-2.2c0.9-0.5,1.9-0.8,3.1-0.8c0.7,0,1.4,0.1,2,0.3c0.6,0.2,1.1,0.5,1.6,0.8c0.5,0.3,0.8,0.8,1.1,1.3
		s0.5,1,0.6,1.7l-3,0.6c-0.1-0.3-0.2-0.6-0.3-0.8c-0.1-0.2-0.3-0.5-0.5-0.6c-0.2-0.2-0.4-0.3-0.7-0.4c-0.3-0.1-0.5-0.1-0.8-0.1
		c-0.6,0-1.1,0.2-1.4,0.5c-0.4,0.3-0.7,0.7-0.9,1.3c-0.2,0.6-0.3,1.2-0.3,1.9c0,0.7,0.1,1.3,0.3,1.9c0.2,0.6,0.5,1,0.9,1.3
		c0.4,0.3,0.9,0.5,1.4,0.5c0.3,0,0.6,0,0.8-0.1s0.5-0.2,0.7-0.4c0.2-0.2,0.4-0.4,0.5-0.7c0.1-0.3,0.2-0.5,0.3-0.9l3,0.5
		c-0.1,0.6-0.3,1.2-0.6,1.7s-0.7,0.9-1.1,1.3c-0.5,0.4-1,0.6-1.6,0.8C9.7,26.1,9.1,26.2,8.4,26.2z"/>
	<path class="st1" d="M20.3,26.2c-1,0-1.8-0.1-2.6-0.4s-1.4-0.7-1.8-1.2s-0.8-1.2-0.9-1.9l3-0.5c0.2,0.6,0.4,1,0.8,1.3
		s0.9,0.4,1.6,0.4c0.6,0,1.1-0.1,1.5-0.3c0.4-0.2,0.5-0.5,0.5-0.9c0-0.3-0.1-0.6-0.4-0.8c-0.3-0.2-0.6-0.4-1.2-0.5l-2.1-0.4
		c-1.2-0.2-2-0.6-2.6-1.2s-0.9-1.3-0.9-2.2c0-0.8,0.2-1.4,0.6-2c0.4-0.6,1-1,1.8-1.3s1.6-0.5,2.7-0.5c0.9,0,1.8,0.1,2.5,0.4
		c0.7,0.3,1.3,0.6,1.7,1.1c0.4,0.5,0.7,1,0.9,1.7l-2.9,0.5c-0.1-0.4-0.4-0.7-0.7-1c-0.3-0.3-0.8-0.4-1.4-0.4c-0.5,0-1,0.1-1.3,0.3
		c-0.4,0.2-0.5,0.5-0.5,0.9c0,0.3,0.1,0.6,0.3,0.8c0.2,0.2,0.6,0.4,1.2,0.5l2.2,0.4c1.2,0.2,2,0.6,2.6,1.2s0.8,1.2,0.8,2.1
		c0,0.8-0.2,1.5-0.7,2.1s-1.1,1.1-1.9,1.4C22.2,26,21.3,26.2,20.3,26.2z"/>
	<path class="st1" d="M32.1,26.2c-1,0-1.8-0.1-2.6-0.4s-1.4-0.7-1.8-1.2s-0.8-1.2-0.9-1.9l3-0.5c0.2,0.6,0.4,1,0.8,1.3
		s0.9,0.4,1.6,0.4c0.6,0,1.1-0.1,1.5-0.3c0.4-0.2,0.5-0.5,0.5-0.9c0-0.3-0.1-0.6-0.4-0.8c-0.3-0.2-0.6-0.4-1.2-0.5l-2.1-0.4
		c-1.2-0.2-2-0.6-2.6-1.2s-0.9-1.3-0.9-2.2c0-0.8,0.2-1.4,0.6-2c0.4-0.6,1-1,1.8-1.3s1.6-0.5,2.7-0.5c0.9,0,1.8,0.1,2.5,0.4
		c0.7,0.3,1.3,0.6,1.7,1.1c0.4,0.5,0.7,1,0.9,1.7l-2.9,0.5c-0.1-0.4-0.4-0.7-0.7-1c-0.3-0.3-0.8-0.4-1.4-0.4c-0.5,0-1,0.1-1.3,0.3
		c-0.4,0.2-0.5,0.5-0.5,0.9c0,0.3,0.1,0.6,0.3,0.8c0.2,0.2,0.6,0.4,1.2,0.5l2.2,0.4c1.2,0.2,2,0.6,2.6,1.2s0.8,1.2,0.8,2.1
		c0,0.8-0.2,1.5-0.7,2.1s-1.1,1.1-1.9,1.4C34.1,26,33.2,26.2,32.1,26.2z"/>
</g>
</svg>
