<?xml version="1.0" encoding="utf-8"?>
<!-- Generator: Adobe Illustrator 28.1.0, SVG Export Plug-In . SVG Version: 6.00 Build 0)  -->
<svg version="1.1" id="レイヤー_1" xmlns="http://www.w3.org/2000/svg" xmlns:xlink="http://www.w3.org/1999/xlink" x="0px"
	 y="0px" viewBox="0 0 64 64" style="enable-background:new 0 0 64 64;" xml:space="preserve">
<style type="text/css">
	.st0{fill:#496274;}
	.st1{opacity:0.5;fill:#FFFFFF;enable-background:new    ;}
	.st2{fill:#FFFFFF;}
</style>
<g>
	<path class="st0" d="M12,3C9.2,3,7,5.2,7,8v48c0,2.8,2.2,5,5,5h40c2.8,0,5-2.2,5-5V16L44,3H12z"/>
	<path class="st1" d="M44,3v11c0,1.1,0.9,2,2,2h11L44,3z"/>
</g>
<g>
	<path class="st2" d="M19,46h26c0.6,0,1,0.4,1,1l0,0c0,0.6-0.4,1-1,1H19c-0.6,0-1-0.4-1-1l0,0C18,46.4,18.4,46,19,46z"/>
	<path class="st2" d="M19,51h20c0.6,0,1,0.4,1,1l0,0c0,0.6-0.4,1-1,1H19c-0.6,0-1-0.4-1-1l0,0C18,51.4,18.4,51,19,51z"/>
</g>
<g>
	<path class="st2" d="M23,19c0-2,1.5-3,3-3v2c-1,0-1,1-1,3v4c0,2-2,3-3,3c1,0,3,1,3,3v4c0,2,0,3,1,3v2c-1.5,0-3-1-3-3v-4
		c0-1.5-1.5-3-3-3v-4c1.5,0,3-1.5,3-3V19z"/>
	<path class="st2" d="M41,19c0-2-1.5-3-3-3v2c1,0,1,1,1,3v4c0,2,2,3,3,3c-1,0-3,1-3,3v4c0,2,0,3-1,3v2c1.5,0,3-1,3-3v-4
		c0-1.5,1.5-3,3-3v-4c-1.5,0-3-1.5-3-3V19z"/>
	<circle class="st2" cx="17" cy="38" r="2"/>
</g>
</svg>
